<svg width="30" height="31" viewBox="0 0 30 31" fill="none" xmlns="http://www.w3.org/2000/svg">
<g filter="url(#filter0_d_1573_5863)">
<path d="M8.52002 19C9.16002 16.8 10.36 16 11.74 16H18.26C19.64 16 20.84 16.8 21.48 19" stroke="#8F8F8F" stroke-width="1.5" stroke-linecap="round" stroke-linejoin="round"/>
<path d="M15 13C16.6569 13 18 11.6569 18 10C18 8.34315 16.6569 7 15 7C13.3431 7 12 8.34315 12 10C12 11.6569 13.3431 13 15 13Z" stroke="#8F8F8F" stroke-width="1.5" stroke-linecap="round" stroke-linejoin="round"/>
<path d="M15 22C20.5228 22 25 17.5228 25 12C25 6.47715 20.5228 2 15 2C9.47715 2 5 6.47715 5 12C5 17.5228 9.47715 22 15 22Z" stroke="#8F8F8F" stroke-width="1.5" stroke-linecap="round" stroke-linejoin="round"/>
</g>
<defs>
<filter id="filter0_d_1573_5863" x="-1" y="0" width="32" height="32" filterUnits="userSpaceOnUse" color-interpolation-filters="sRGB">
<feFlood flood-opacity="0" result="BackgroundImageFix"/>
<feColorMatrix in="SourceAlpha" type="matrix" values="0 0 0 0 0 0 0 0 0 0 0 0 0 0 0 0 0 0 127 0" result="hardAlpha"/>
<feOffset dy="4"/>
<feGaussianBlur stdDeviation="2"/>
<feComposite in2="hardAlpha" operator="out"/>
<feColorMatrix type="matrix" values="0 0 0 0 0 0 0 0 0 0 0 0 0 0 0 0 0 0 0.25 0"/>
<feBlend mode="normal" in2="BackgroundImageFix" result="effect1_dropShadow_1573_5863"/>
<feBlend mode="normal" in="SourceGraphic" in2="effect1_dropShadow_1573_5863" result="shape"/>
</filter>
</defs>
</svg>
